<svg width="100" height="100" viewBox="0 0 100 100" fill="none" xmlns="http://www.w3.org/2000/svg">
<rect width="100" height="100" rx="24" fill="url(#grad1)"/>
<path d="M50 20C33.4315 20 20 33.4315 20 50C20 66.5685 33.4315 80 50 80C66.5685 80 80 66.5685 80 50C80 33.4315 66.5685 20 50 20ZM50 72C37.8497 72 28 62.1503 28 50C28 37.8497 37.8497 28 50 28C62.1503 28 72 37.8497 72 50C72 62.1503 62.1503 72 50 72Z" fill="white" fill-opacity="0.9"/>
<path d="M60 40H54V48H60V54H54V60H46V54H40V48H46V40H40V34H46V40H54V34H60V40Z" fill="url(#grad2)"/>
<defs>
<linearGradient id="grad1" x1="0" y1="0" x2="100" y2="100" gradientUnits="userSpaceOnUse">
<stop stop-color="#7C3AED"/>
<stop offset="1" stop-color="#DB2777"/>
</linearGradient>
<linearGradient id="grad2" x1="40" y1="34" x2="60" y2="60" gradientUnits="userSpaceOnUse">
<stop stop-color="#FCD34D"/>
<stop offset="1" stop-color="#F59E0B"/>
</linearGradient>
</defs>
</svg>