
<svg width="100" height="100" viewBox="0 0 100 100" fill="none" xmlns="http://www.w3.org/2000/svg">
<rect width="100" height="100" rx="20" fill="url(#paint0_linear_1_2)"/>
<path d="M50 15C30.67 15 15 30.67 15 50C15 69.33 30.67 85 50 85C69.33 85 85 69.33 85 50C85 30.67 69.33 15 50 15ZM50 78C34.54 78 22 65.46 22 50C22 34.54 34.54 22 50 22C65.46 22 78 34.54 78 50C78 65.46 65.46 78 50 78Z" fill="white"/>
<path d="M62.5 37.5H53.75V46.25H62.5V55H53.75V62.5H45V55H37.5V46.25H45V37.5H37.5V29.75H45V37.5H53.75V29.75H62.5V37.5Z" fill="url(#paint1_linear_1_2)"/>
<defs>
<linearGradient id="paint0_linear_1_2" x1="0" y1="0" x2="100" y2="100" gradientUnits="userSpaceOnUse">
<stop stop-color="#4F46E5"/>
<stop offset="1" stop-color="#EC4899"/>
</linearGradient>
<linearGradient id="paint1_linear_1_2" x1="37.5" y1="29.75" x2="62.5" y2="62.5" gradientUnits="userSpaceOnUse">
<stop stop-color="#FBBF24"/>
<stop offset="1" stop-color="#F59E0B"/>
</linearGradient>
</defs>
</svg>
